<svg width="571.475px" height="122px" xmlns="http://www.w3.org/2000/svg" viewBox="-35.73750000000001 14 571.475 122" style="background: rgb(255, 243, 235);" preserveAspectRatio="xMidYMid"><defs><filter id="editing-extrude-glow"><feFlood flood-color="#000000" result="flood-1"></feFlood><feMorphology operator="erode" radius="1" in="SourceAlpha" result="erode"></feMorphology><feComposite operator="in" in="flood-1" in2="erode" result="comp1"></feComposite><feConvolveMatrix order="0,0" divisor="1" in="comp1" result="convolve" kernelMatrix=""></feConvolveMatrix><feOffset dx="0" dy="0" in="convolve" result="extrude"></feOffset><feComposite operator="in" in="flood-1" in2="extrude" result="comp-extrude"></feComposite><feFlood flood-color="#9c5252" result="flood-2"></feFlood><feComposite operator="in" in="flood-2" in2="SourceAlpha" result="comp2"></feComposite><feMorphology operator="dilate" radius="1" in="comp2" result="dilate"></feMorphology><feOffset dx="0" dy="0" in="dilate" result="offset"></feOffset><feGaussianBlur in="offset" stdDeviation="5.8" result="blur"></feGaussianBlur><feComponentTransfer in="blur" result="shadow"><feFuncA type="linear" slope="0.8" intercept="-0.2"></feFuncA></feComponentTransfer><feMerge><feMergeNode in="shadow"></feMergeNode><feMergeNode in="comp-extrude"></feMergeNode><feMergeNode in="SourceGraphic"></feMergeNode></feMerge></filter></defs><g filter="url(#editing-extrude-glow)"><g transform="translate(47.69498121738434, 104.44000053405762)"><path d="M34.50-13.25L34.50-13.25L34.50-13.25Q36.16-12.03 36.16-9.44L36.16-9.44L36.16-9.44Q36.16-6.85 35.04-5.02L35.04-5.02L35.04-5.02Q33.92-3.20 31.74-1.79L31.74-1.79L31.74-1.79Q27.07 1.22 18.91 1.22L18.91 1.22L18.91 1.22Q10.75 1.22 6.30-3.04L6.30-3.04L6.30-3.04Q1.86-7.30 1.86-14.85L1.86-14.85L1.86-14.85Q1.86-25.54 7.42-33.66L7.42-33.66L7.42-33.66Q11.65-39.68 19.20-42.24L19.20-42.24L19.20-42.24Q23.10-43.52 26.94-43.52L26.94-43.52L26.94-43.52Q30.78-43.52 33.15-43.01L33.15-43.01L33.15-43.01Q35.52-42.50 37.31-41.47L37.31-41.47L37.31-41.47Q41.22-39.23 41.22-35.65L41.22-35.65L41.22-35.65Q41.22-32.38 38.14-29.95L38.14-29.95L38.14-29.95Q35.33-27.78 33.02-27.78L33.02-27.78L33.02-27.78Q30.72-27.78 29.76-28.10L29.76-28.10L29.76-28.10Q30.02-30.40 30.02-31.90L30.02-31.90L30.02-31.90Q30.02-33.41 29.95-34.50L29.95-34.50L29.95-34.50Q29.89-35.58 29.57-36.61L29.57-36.61L29.57-36.61Q28.93-38.98 26.98-38.98L26.98-38.98L26.98-38.98Q25.02-38.98 23.07-37.15L23.07-37.15L23.07-37.15Q21.12-35.33 19.46-32.26L19.46-32.26L19.46-32.26Q15.68-25.28 15.68-17.02L15.68-17.02L15.68-17.02Q15.68-13.06 17.92-10.78L17.92-10.78L17.92-10.78Q20.16-8.51 24.96-8.51L24.96-8.51L24.96-8.51Q28.54-8.51 31.94-10.88L31.94-10.88L31.94-10.88Q33.41-11.90 34.50-13.25ZM44.26-1.92L44.26-1.92L44.26-1.92Q42.75-3.58 42.08-6.21L42.08-6.21L42.08-6.21Q41.41-8.83 41.41-13.12L41.41-13.12L41.41-13.12Q41.41-17.41 42.88-21.31L42.88-21.31L42.88-21.31Q44.35-25.22 47.04-28.03L47.04-28.03L47.04-28.03Q52.54-33.92 61.63-33.92L61.63-33.92L61.63-33.92Q64.90-33.92 67.26-32.83L67.26-32.83L78.21-33.92L73.47-8.96L73.47-8.96Q73.28-8.19 73.28-6.78L73.28-6.78L73.28-6.78Q73.28-5.38 74.14-4.48L74.14-4.48L74.14-4.48Q75.01-3.58 76.29-3.46L76.29-3.46L76.29-3.46Q75.65-1.28 73.31 0L73.31 0L73.31 0Q70.98 1.28 68.35 1.28L68.35 1.28L68.35 1.28Q65.73 1.28 63.97 0.29L63.97 0.29L63.97 0.29Q62.21-0.70 61.70-2.37L61.70-2.37L61.70-2.37Q60.67-0.77 58.50 0.26L58.50 0.26L58.50 0.26Q56.32 1.28 53.41 1.28L53.41 1.28L53.41 1.28Q50.50 1.28 48.13 0.51L48.13 0.51L48.13 0.51Q45.76-0.26 44.26-1.92ZM57.76-27.90L57.76-27.90L57.76-27.90Q57.02-26.75 56.38-24.80L56.38-24.80L56.38-24.80Q55.74-22.85 54.69-17.63L54.69-17.63L54.69-17.63Q53.63-12.42 53.63-8.70L53.63-8.70L53.63-8.70Q53.63-4.99 54.21-3.90L54.21-3.90L54.21-3.90Q54.78-2.82 55.81-2.82L55.81-2.82L55.81-2.82Q57.86-2.82 59.36-4.77L59.36-4.77L59.36-4.77Q60.86-6.72 61.44-10.18L61.44-10.18L64.83-28.93L64.83-28.93Q63.49-30.08 61.92-30.08L61.92-30.08L61.92-30.08Q60.35-30.08 59.42-29.57L59.42-29.57L59.42-29.57Q58.50-29.06 57.76-27.90ZM96.96-3.52L96.96-3.52L96.96-3.52Q94.98 1.28 88.64 1.28L88.64 1.28L88.64 1.28Q85.44 1.28 83.39-0.96L83.39-0.96L83.39-0.96Q81.73-2.82 81.73-4.93L81.73-4.93L81.73-4.93Q81.73-9.73 83.97-20.22L83.97-20.22L88.64-44.80L101.63-46.08L95.42-13.70L95.42-13.70Q94.34-8.96 94.34-7.30L94.34-7.30L94.34-7.30Q94.34-3.65 96.96-3.52ZM128.32-10.82L128.32-10.82L128.32-10.82Q129.92-9.73 129.92-7.33L129.92-7.33L129.92-7.33Q129.92-4.93 128.70-3.39L128.70-3.39L128.70-3.39Q127.49-1.86 125.50-0.83L125.50-0.83L125.50-0.83Q121.41 1.28 116.99 1.28L116.99 1.28L116.99 1.28Q112.58 1.28 109.98 0.32L109.98 0.32L109.98 0.32Q107.39-0.64 105.66-2.43L105.66-2.43L105.66-2.43Q102.27-5.82 102.27-12.03L102.27-12.03L102.27-12.03Q102.27-21.70 107.52-27.58L107.52-27.58L107.52-27.58Q113.15-33.92 122.94-33.92L122.94-33.92L122.94-33.92Q129.02-33.92 132.03-31.36L132.03-31.36L132.03-31.36Q134.27-29.44 134.27-26.30L134.27-26.30L134.27-26.30Q134.27-15.04 114.82-15.04L114.82-15.04L114.82-15.04Q114.56-13.38 114.56-11.97L114.56-11.97L114.56-11.97Q114.56-9.02 115.87-7.90L115.87-7.90L115.87-7.90Q117.18-6.78 119.62-6.78L119.62-6.78L119.62-6.78Q122.05-6.78 124.64-7.90L124.64-7.90L124.64-7.90Q127.23-9.02 128.32-10.82ZM115.26-17.79L115.26-17.79L115.26-17.79Q119.81-17.79 122.43-20.61L122.43-20.61L122.43-20.61Q125.06-23.30 125.06-27.58L125.06-27.58L125.06-27.58Q125.06-29.06 124.51-29.86L124.51-29.86L124.51-29.86Q123.97-30.66 122.88-30.66L122.88-30.66L122.88-30.66Q121.79-30.66 120.86-30.24L120.86-30.24L120.86-30.24Q119.94-29.82 118.98-28.42L118.98-28.42L118.98-28.42Q116.61-25.22 115.26-17.79ZM163.52 1.28L163.52 1.28L163.52 1.28Q155.78 1.28 155.78-4.74L155.78-4.74L155.78-4.74Q155.84-6.40 156.35-9.22L156.35-9.22L157.50-15.10L157.50-15.10Q159.23-23.42 159.23-25.28L159.23-25.28L159.23-25.28Q159.23-28.99 157.06-28.99L157.06-28.99L157.06-28.99Q153.41-28.99 151.49-19.46L151.49-19.46L147.71 0L134.85 1.28L141.50-32.70L152-33.92L150.98-27.65L150.98-27.65Q153.98-33.92 163.20-33.92L163.20-33.92L163.20-33.92Q167.68-33.92 169.57-32.03L169.57-32.03L169.57-32.03Q171.46-30.14 171.46-25.92L171.46-25.92L171.46-25.92Q171.46-21.95 169.41-12.67L169.41-12.67L169.41-12.67Q168.45-8.51 168.45-6.94L168.45-6.94L168.45-6.94Q168.45-5.38 169.31-4.48L169.31-4.48L169.31-4.48Q170.18-3.58 171.46-3.46L171.46-3.46L171.46-3.46Q170.82-1.28 168.61 0L168.61 0L168.61 0Q166.40 1.28 163.52 1.28ZM196.74-33.92L196.74-33.92L196.74-33.92Q199.04-33.92 200.83-33.41L200.83-33.41L200.83-33.41Q200.90-33.66 201.02-34.37L201.02-34.37L201.34-36.35L201.34-36.35Q201.60-37.63 201.98-39.74L201.98-39.74L203.01-44.80L215.74-46.08L208.64-8.96L208.64-8.96Q208.58-8.58 208.58-7.94L208.58-7.94L208.58-6.91L208.58-6.91Q208.58-5.50 209.28-4.45L209.28-4.45L209.28-4.45Q209.98-3.39 211.14-3.39L211.14-3.39L211.14-3.39Q209.86-0.38 205.95 0.90L205.95 0.90L205.95 0.90Q204.61 1.28 202.72 1.28L202.72 1.28L202.72 1.28Q200.83 1.28 199.10 0.29L199.10 0.29L199.10 0.29Q197.38-0.70 196.86-2.37L196.86-2.37L196.86-2.37Q195.84-0.70 193.79 0.29L193.79 0.29L193.79 0.29Q191.74 1.28 188.77 1.28L188.77 1.28L188.77 1.28Q185.79 1.28 183.33 0.51L183.33 0.51L183.33 0.51Q180.86-0.26 179.33-1.92L179.33-1.92L179.33-1.92Q176.51-5.18 176.51-12.61L176.51-12.61L176.51-12.61Q176.51-22.21 182.14-28.03L182.14-28.03L182.14-28.03Q187.78-33.92 196.74-33.92ZM196.29-30.08L196.29-30.08L196.29-30.08Q193.92-30.08 192.64-27.52L192.64-27.52L192.64-27.52Q191.36-24.96 190.05-18.62L190.05-18.62L190.05-18.62Q188.74-12.29 188.74-6.59L188.74-6.59L188.74-6.59Q188.74-2.69 191.04-2.69L191.04-2.69L191.04-2.69Q193.09-2.69 194.53-4.74L194.53-4.74L194.53-4.74Q195.97-6.78 196.54-10.18L196.54-10.18L200-28.93L200-28.93Q198.66-30.08 196.29-30.08ZM219.36-1.92L219.36-1.92L219.36-1.92Q217.86-3.58 217.18-6.21L217.18-6.21L217.18-6.21Q216.51-8.83 216.51-13.12L216.51-13.12L216.51-13.12Q216.51-17.41 217.98-21.31L217.98-21.31L217.98-21.31Q219.46-25.22 222.14-28.03L222.14-28.03L222.14-28.03Q227.65-33.92 236.74-33.92L236.74-33.92L236.74-33.92Q240-33.92 242.37-32.83L242.37-32.83L253.31-33.92L248.58-8.96L248.58-8.96Q248.38-8.19 248.38-6.78L248.38-6.78L248.38-6.78Q248.38-5.38 249.25-4.48L249.25-4.48L249.25-4.48Q250.11-3.58 251.39-3.46L251.39-3.46L251.39-3.46Q250.75-1.28 248.42 0L248.42 0L248.42 0Q246.08 1.28 243.46 1.28L243.46 1.28L243.46 1.28Q240.83 1.28 239.07 0.29L239.07 0.29L239.07 0.29Q237.31-0.70 236.80-2.37L236.80-2.37L236.80-2.37Q235.78-0.77 233.60 0.26L233.60 0.26L233.60 0.26Q231.42 1.28 228.51 1.28L228.51 1.28L228.51 1.28Q225.60 1.28 223.23 0.51L223.23 0.51L223.23 0.51Q220.86-0.26 219.36-1.92ZM232.86-27.90L232.86-27.90L232.86-27.90Q232.13-26.75 231.49-24.80L231.49-24.80L231.49-24.80Q230.85-22.85 229.79-17.63L229.79-17.63L229.79-17.63Q228.74-12.42 228.74-8.70L228.74-8.70L228.74-8.70Q228.74-4.99 229.31-3.90L229.31-3.90L229.31-3.90Q229.89-2.82 230.91-2.82L230.91-2.82L230.91-2.82Q232.96-2.82 234.46-4.77L234.46-4.77L234.46-4.77Q235.97-6.72 236.54-10.18L236.54-10.18L239.94-28.93L239.94-28.93Q238.59-30.08 237.02-30.08L237.02-30.08L237.02-30.08Q235.46-30.08 234.53-29.57L234.53-29.57L234.53-29.57Q233.60-29.06 232.86-27.90ZM276.80-17.98L276.80-17.98L276.80-17.98Q279.10-22.08 279.10-26.24L279.10-26.24L279.10-26.24Q279.10-28.99 277.12-28.99L277.12-28.99L277.12-28.99Q275.58-28.99 273.98-26.37L273.98-26.37L273.98-26.37Q272.32-23.74 271.81-20.35L271.81-20.35L268.48 0L255.23 1.28L261.76-32.64L272.32-33.92L271.17-27.46L271.17-27.46Q274.30-33.92 281.34-33.92L281.34-33.92L281.34-33.92Q285.06-33.92 287.07-32L287.07-32L287.07-32Q289.09-30.08 289.09-26.14L289.09-26.14L289.09-26.14Q289.09-22.21 286.50-19.71L286.50-19.71L286.50-19.71Q283.90-17.22 279.49-17.22L279.49-17.22L279.49-17.22Q277.57-17.22 276.80-17.98ZM317.25 1.28L317.25 1.28L317.25 1.28Q309.06 1.28 308.29-10.37L308.29-10.37L297.28-10.37L297.28-10.37Q296-7.42 295.10-4.86L295.10-4.86L293.44 0L284.48 0L304.64-42.24L318.40-42.24L321.09-11.14L321.09-11.14Q321.73-4.42 324.29-2.43L324.29-2.43L324.29-2.43Q322.43 1.28 317.25 1.28ZM302.78-23.17L299.26-15.04L308.10-15.04L307.33-31.49L307.33-33.22L302.78-23.17ZM357.82-4.38L357.82-4.38L357.82-4.38Q355.14-1.66 351.46-0.19L351.46-0.19L351.46-0.19Q347.78 1.28 344.13 1.28L344.13 1.28L344.13 1.28Q340.48 1.28 339.20 0.64L339.20 0.64L337.22 11.52L324.22 12.80L333.06-32.64L343.49-33.73L342.66-29.31L342.66-29.31Q345.34-33.86 350.91-33.86L350.91-33.86L350.91-33.86Q357.18-33.86 360.51-29.82L360.51-29.82L360.51-29.82Q363.46-26.18 363.46-20.61L363.46-20.61L363.46-20.61Q363.46-15.04 361.98-11.07L361.98-11.07L361.98-11.07Q360.51-7.10 357.82-4.38ZM343.36-22.34L339.97-3.58L339.97-3.58Q341.31-2.43 342.98-2.43L342.98-2.43L342.98-2.43Q344.64-2.43 345.60-3.07L345.60-3.07L345.60-3.07Q346.56-3.71 347.26-4.99L347.26-4.99L347.26-4.99Q349.18-8.45 350.72-18.94L350.72-18.94L350.72-18.94Q351.17-22.02 351.17-25.02L351.17-25.02L351.17-25.02Q351.17-28.03 350.50-28.99L350.50-28.99L350.50-28.99Q349.82-29.95 348.54-29.95L348.54-29.95L348.54-29.95Q344.64-29.95 343.36-22.34L343.36-22.34ZM397.12-4.38L397.12-4.38L397.12-4.38Q394.43-1.66 390.75-0.19L390.75-0.19L390.75-0.19Q387.07 1.28 383.42 1.28L383.42 1.28L383.42 1.28Q379.78 1.28 378.50 0.64L378.50 0.64L376.51 11.52L363.52 12.80L372.35-32.64L382.78-33.73L381.95-29.31L381.95-29.31Q384.64-33.86 390.21-33.86L390.21-33.86L390.21-33.86Q396.48-33.86 399.81-29.82L399.81-29.82L399.81-29.82Q402.75-26.18 402.75-20.61L402.75-20.61L402.75-20.61Q402.75-15.04 401.28-11.07L401.28-11.07L401.28-11.07Q399.81-7.10 397.12-4.38ZM382.66-22.34L379.26-3.58L379.26-3.58Q380.61-2.43 382.27-2.43L382.27-2.43L382.27-2.43Q383.94-2.43 384.90-3.07L384.90-3.07L384.90-3.07Q385.86-3.71 386.56-4.99L386.56-4.99L386.56-4.99Q388.48-8.45 390.02-18.94L390.02-18.94L390.02-18.94Q390.46-22.02 390.46-25.02L390.46-25.02L390.46-25.02Q390.46-28.03 389.79-28.99L389.79-28.99L389.79-28.99Q389.12-29.95 387.84-29.95L387.84-29.95L387.84-29.95Q383.94-29.95 382.66-22.34L382.66-22.34Z" fill="#eb6c6c"></path></g></g><style>text {
  font-size: 64px;
  font-family: Arial Black;
  dominant-baseline: central;
  text-anchor: middle;
}</style></svg>