<svg width="534" height="90" viewBox="0 0 534 90" fill="none" xmlns="http://www.w3.org/2000/svg">
<path d="M43.4777 50.1817C44.9518 51.4249 45.6888 53.3662 45.6888 56.0054C45.6888 58.6447 45.1915 60.8967 44.197 62.7616C43.2024 64.6162 41.7371 66.2619 39.8012 67.6987C35.6542 70.766 29.9575 72.2996 22.7112 72.2996C15.4649 72.2996 9.86595 70.1291 5.91424 65.788C1.97141 61.447 0 55.4297 0 47.7361C0 36.8427 2.46871 27.2588 7.40612 18.9844C11.1625 12.8499 16.3929 8.47826 23.0975 5.86957C26.5608 4.56522 29.9975 3.91305 33.4075 3.91305C36.8175 3.91305 39.5748 4.1729 41.6794 4.6926C43.784 5.2123 45.6311 5.99694 47.2207 7.04654C50.6929 9.32915 52.4289 12.2945 52.4289 15.9426C52.4289 19.2748 51.0614 22.179 48.3263 24.6552C45.8309 26.8665 43.5576 27.9721 41.5062 27.9721C39.4638 27.9721 38.0163 27.8091 37.1638 27.483C37.3947 25.1393 37.5101 23.2031 37.5101 21.6746C37.5101 20.1359 37.4791 18.8111 37.4169 17.7004C37.3636 16.5999 37.1949 15.5248 36.9107 14.4752C36.3424 12.0601 35.1924 10.8526 33.4607 10.8526C31.7202 10.8526 29.9841 11.785 28.2525 13.6498C26.5208 15.5044 24.918 17.9959 23.4438 21.1243C20.0871 28.2371 18.4087 36.002 18.4087 44.4192C18.4087 48.4545 19.4033 51.6338 21.3925 53.9572C23.3817 56.2704 26.5075 57.427 30.77 57.427C33.9492 57.427 37.0484 56.2194 40.0676 53.8043C41.373 52.7649 42.5097 51.5574 43.4777 50.1817ZM56.4783 67.5C55.1374 65.8084 54.1695 63.6226 53.5745 60.9426C52.9795 58.2728 52.682 54.752 52.682 50.3804C52.682 46.0088 53.3347 41.8359 54.6401 37.8618C55.9455 33.8774 57.7926 30.4535 60.1814 27.59C65.0655 21.588 71.5437 18.587 79.6158 18.587C82.5196 18.587 85.0194 19.1423 87.1152 20.2531L101.701 18.587L95.3871 56.7391C95.2184 57.5238 95.134 58.6345 95.134 60.0713C95.134 61.498 95.5159 62.6698 96.2796 63.587C97.0522 64.5041 98.0068 65.0238 99.1435 65.1461C98.5751 67.3675 97.252 69.1304 95.174 70.4348C93.1049 71.7391 90.9026 72.3913 88.5671 72.3913C86.2405 72.3913 84.2957 71.8869 82.7328 70.8781C81.1698 69.8692 80.1619 68.5139 79.709 66.8122C78.7944 68.4426 77.3735 69.7826 75.4465 70.8322C73.5106 71.8716 71.2506 72.3913 68.6665 72.3913C66.0823 72.3913 63.7379 71.999 61.6333 71.2143C59.5287 70.4297 57.8104 69.1916 56.4783 67.5ZM74.4608 27.7887C73.8037 28.9606 73.1909 30.5401 72.6226 32.5272C72.0543 34.5143 71.3039 38.1675 70.3715 43.4868C69.4302 48.7959 68.9595 53.3458 68.9595 57.1366C68.9595 60.9171 69.217 63.3628 69.7321 64.4735C70.2383 65.5741 70.9487 66.1243 71.8634 66.1243C73.6838 66.1243 75.26 65.1308 76.5921 63.1437C77.9241 61.1566 78.8477 58.4001 79.3627 54.8743L83.8783 26.2143C82.6884 25.0425 81.3963 24.4565 80.0021 24.4565C78.6079 24.4565 77.4979 24.7164 76.672 25.2361C75.855 25.7558 75.118 26.6067 74.4608 27.7887ZM126.677 65.0544C124.918 69.9457 121.224 72.3913 115.594 72.3913C112.752 72.3913 110.421 71.25 108.601 68.9674C107.127 67.072 106.39 65.0493 106.39 62.8991C106.39 58.0078 107.384 50.2174 109.373 39.5279L115.594 1.95653L132.897 0L124.625 49.4939C123.666 54.3241 123.187 57.5849 123.187 59.2765C123.187 62.9959 124.35 64.9219 126.677 65.0544ZM168.449 53.8961C169.87 55.0068 170.581 56.785 170.581 59.2306C170.581 61.6763 170.039 63.6838 168.955 65.2531C167.881 66.8122 166.46 68.1165 164.693 69.1661C161.061 71.3162 157.282 72.3913 153.357 72.3913C149.441 72.3913 146.329 71.9022 144.02 70.9239C141.72 69.9457 139.802 68.5445 138.265 66.7205C135.255 63.266 133.75 58.3747 133.75 52.0465C133.75 42.1926 136.081 34.2697 140.743 28.2779C145.743 21.8173 152.589 18.587 161.283 18.587C166.682 18.587 170.718 19.8913 173.391 22.5C175.38 24.4565 176.375 27.0347 176.375 30.2344C176.375 41.7086 167.739 47.4457 150.467 47.4457C150.236 49.1372 150.12 50.7014 150.12 52.1382C150.12 55.1444 150.702 57.2181 151.865 58.3594C153.029 59.5007 154.694 60.0713 156.861 60.0713C159.018 60.0713 161.247 59.5007 163.547 58.3594C165.847 57.2181 167.481 55.7303 168.449 53.8961ZM151.053 43.2422C155.093 43.2422 158.277 41.8054 160.604 38.9317C162.939 36.1906 164.107 32.6393 164.107 28.2779C164.107 26.7697 163.863 25.608 163.374 24.7928C162.895 23.9776 162.171 23.57 161.203 23.57C160.235 23.57 159.338 23.784 158.512 24.212C157.695 24.6399 156.861 25.5673 156.008 26.9939C153.903 30.2548 152.252 35.6709 151.053 43.2422ZM215.337 72.3913C208.464 72.3913 205.027 69.3241 205.027 63.1895C205.08 61.498 205.333 59.2154 205.786 56.3417L207.318 47.3539C208.854 38.8757 209.623 33.6889 209.623 31.7935C209.623 28.0129 208.659 26.1226 206.732 26.1226C203.491 26.1226 201.018 30.9783 199.313 40.6895L194.277 70.4348L177.147 72.3913L186.006 20.4518L199.992 18.587L198.633 28.1709C201.297 21.7816 206.723 18.587 214.911 18.587C218.889 18.587 221.717 19.5499 223.396 21.4759C225.074 23.4018 225.913 26.5149 225.913 30.8152C225.913 34.8607 225.003 41.6118 223.183 51.0683C222.33 55.3074 221.904 58.2269 221.904 59.8268C221.904 61.4164 222.286 62.6698 223.049 63.587C223.822 64.5041 224.777 65.0238 225.913 65.1461C225.345 67.3675 224.08 69.1304 222.117 70.4348C220.154 71.7391 217.894 72.3913 215.337 72.3913ZM259.587 18.587C261.63 18.587 263.446 18.8468 265.035 19.3665C265.097 19.1118 265.182 18.6226 265.288 17.8991L265.715 14.8726C265.945 13.5683 266.23 11.841 266.567 9.6909L267.939 1.95653L284.896 0L275.438 56.7391C275.385 57.1264 275.359 57.6461 275.359 58.2982V59.8726C275.359 61.3094 275.669 62.5628 276.291 63.6328C276.913 64.713 277.738 65.2531 278.769 65.2531C277.632 68.3203 275.327 70.5061 271.855 71.8105C270.665 72.1977 269.231 72.3913 267.553 72.3913C265.874 72.3913 264.267 71.8869 262.731 70.8781C261.203 69.8692 260.209 68.5139 259.747 66.8122C258.841 68.5139 257.478 69.8692 255.658 70.8781C253.837 71.8869 251.608 72.3913 248.971 72.3913C246.325 72.3913 243.909 71.999 241.725 71.2143C239.531 70.4297 237.755 69.1916 236.396 67.5C233.892 64.178 232.64 58.7313 232.64 51.16C232.64 41.3774 235.14 33.5207 240.139 27.59C245.148 21.588 251.631 18.587 259.587 18.587ZM258.988 24.4565C256.883 24.4565 255.263 25.7609 254.126 28.3696C252.989 30.9783 251.839 35.5129 250.676 41.9735C249.513 48.4239 248.931 54.5533 248.931 60.3618C248.931 64.3359 249.952 66.323 251.995 66.323C253.815 66.323 255.365 65.2785 256.643 63.1895C257.922 61.1107 258.815 58.339 259.321 54.8743L263.93 26.2143C262.74 25.0425 261.092 24.4565 258.988 24.4565ZM289.718 67.5C288.386 65.8084 287.418 63.6226 286.814 60.9426C286.219 58.2728 285.922 54.752 285.922 50.3804C285.922 46.0088 286.574 41.8359 287.88 37.8618C289.194 33.8774 291.041 30.4535 293.421 27.59C298.314 21.588 304.797 18.587 312.869 18.587C315.764 18.587 318.263 19.1423 320.368 20.2531L334.94 18.587L328.64 56.7391C328.462 57.5238 328.374 58.6345 328.374 60.0713C328.374 61.498 328.76 62.6698 329.532 63.587C330.296 64.5041 331.246 65.0238 332.383 65.1461C331.815 67.3675 330.496 69.1304 328.427 70.4348C326.349 71.7391 324.147 72.3913 321.82 72.3913C319.484 72.3913 317.535 71.8869 315.972 70.8781C314.409 69.8692 313.401 68.5139 312.949 66.8122C312.043 68.4426 310.622 69.7826 308.686 70.8322C306.75 71.8716 304.49 72.3913 301.906 72.3913C299.322 72.3913 296.977 71.999 294.873 71.2143C292.768 70.4297 291.05 69.1916 289.718 67.5ZM307.7 27.7887C307.052 28.9606 306.444 30.5401 305.875 32.5272C305.307 34.5143 304.552 38.1675 303.611 43.4868C302.679 48.7959 302.212 53.3458 302.212 57.1366C302.212 60.9171 302.465 63.3628 302.972 64.4735C303.487 65.5741 304.197 66.1243 305.103 66.1243C306.923 66.1243 308.5 65.1308 309.832 63.1437C311.173 61.1566 312.096 58.4001 312.602 54.8743L317.131 26.2143C315.932 25.0425 314.636 24.4565 313.242 24.4565C311.856 24.4565 310.751 24.7164 309.925 25.2361C309.099 25.7558 308.357 26.6067 307.7 27.7887ZM366.23 42.9518C368.272 38.7738 369.294 34.5652 369.294 30.3261C369.294 27.5238 368.415 26.1226 366.656 26.1226C365.289 26.1226 363.895 27.4575 362.474 30.1274C361 32.8074 360.036 35.8747 359.583 39.3291L355.148 70.4348L337.498 72.3913L346.196 20.5435L360.263 18.587L358.731 28.4613C361.51 21.8784 366.026 18.587 372.277 18.587C375.581 18.587 378.125 19.5652 379.91 21.5217C381.704 23.4783 382.601 26.464 382.601 30.4789C382.601 34.4837 381.451 37.7599 379.151 40.3074C376.842 42.8448 373.729 44.1135 369.813 44.1135C368.108 44.1135 366.914 43.7262 366.23 42.9518ZM420.111 72.3913C412.838 72.3913 408.86 66.4555 408.176 54.5839H393.51C392.373 57.59 391.406 60.3974 390.606 63.0061L388.395 70.4348H376.46L403.314 5.86957H421.643L425.226 53.4069C425.794 60.2548 427.215 64.6926 429.488 66.7205C427.837 70.501 424.711 72.3913 420.111 72.3913ZM400.836 35.0187L396.148 47.4457H407.923L406.897 22.3013V19.6569L400.836 35.0187ZM474.152 63.7398C471.772 66.5116 468.948 68.6464 465.68 70.1444C462.412 71.6423 459.157 72.3913 455.916 72.3913C452.675 72.3913 450.486 72.0652 449.349 71.413L446.712 88.0435L429.395 90L441.17 20.5435L455.064 18.8774L453.958 25.6335C456.338 20.9969 460.001 18.6787 464.947 18.6787C470.515 18.6787 474.778 20.7371 477.735 24.8539C480.354 28.5632 481.664 33.2558 481.664 38.9317C481.664 44.6077 481.007 49.4684 479.693 53.5139C478.387 57.5594 476.54 60.9681 474.152 63.7398ZM454.89 36.2874L450.375 64.9626C451.565 66.1345 452.901 66.7205 454.384 66.7205C455.858 66.7205 457.022 66.3944 457.874 65.7422C458.727 65.09 459.464 64.1118 460.085 62.8074C461.79 59.2816 463.327 52.1739 464.694 41.4844C465.094 38.3458 465.294 35.248 465.294 32.1909C465.294 29.1236 464.996 27.1009 464.401 26.1226C463.797 25.1444 462.927 24.6552 461.79 24.6552C458.327 24.6552 456.027 28.5326 454.89 36.2874ZM526.501 63.7398C524.112 66.5116 521.283 68.6464 518.016 70.1444C514.748 71.6423 511.493 72.3913 508.252 72.3913C505.019 72.3913 502.835 72.0652 501.698 71.413L499.047 88.0435L481.744 90L493.506 20.5435L507.399 18.8774L506.294 25.6335C508.682 20.9969 512.35 18.6787 517.296 18.6787C522.864 18.6787 527.127 20.7371 530.084 24.8539C532.695 28.5632 534 33.2558 534 38.9317C534 44.6077 533.347 49.4684 532.042 53.5139C530.736 57.5594 528.889 60.9681 526.501 63.7398ZM507.239 36.2874L502.71 64.9626C503.909 66.1345 505.246 66.7205 506.72 66.7205C508.203 66.7205 509.371 66.3944 510.223 65.7422C511.076 65.09 511.813 64.1118 512.434 62.8074C514.139 59.2816 515.676 52.1739 517.043 41.4844C517.434 38.3458 517.629 35.248 517.629 32.1909C517.629 29.1236 517.332 27.1009 516.737 26.1226C516.142 25.1444 515.276 24.6552 514.139 24.6552C510.676 24.6552 508.376 28.5326 507.239 36.2874Z" fill="white"/>
</svg>
