<svg width="534" height="81" viewBox="0 0 534 81" fill="none" xmlns="http://www.w3.org/2000/svg">
<path d="M43.4777 45.1636C44.9518 46.2824 45.6888 48.0296 45.6888 50.4049C45.6888 52.7802 45.1915 54.8071 44.197 56.4854C43.2024 58.1546 41.7371 59.6357 39.8012 60.9288C35.6542 63.6894 29.9575 65.0696 22.7112 65.0696C15.4649 65.0696 9.86595 63.1162 5.91424 59.2092C1.97141 55.3023 0 49.8867 0 42.9625C0 33.1585 2.46871 24.533 7.40612 17.0859C11.1625 11.5649 16.3929 7.63044 23.0975 5.28261C26.5608 4.1087 29.9975 3.52174 33.4075 3.52174C36.8175 3.52174 39.5748 3.75561 41.6794 4.22334C43.784 4.69107 45.6311 5.39725 47.2207 6.34188C50.6929 8.39623 52.4289 11.065 52.4289 14.3483C52.4289 17.3473 51.0614 19.9611 48.3263 22.1897C45.8309 24.1799 43.5576 25.1749 41.5062 25.1749C39.4638 25.1749 38.0163 25.0282 37.1638 24.7347C37.3947 22.6253 37.5101 20.8828 37.5101 19.5071C37.5101 18.1223 37.4791 16.93 37.4169 15.9304C37.3636 14.9399 37.1949 13.9723 36.9107 13.0277C36.3424 10.8541 35.1924 9.76733 33.4607 9.76733C31.7202 9.76733 29.9841 10.6065 28.2525 12.2848C26.5208 13.954 24.918 16.1963 23.4438 19.0119C20.0871 25.4134 18.4087 32.4018 18.4087 39.9772C18.4087 43.609 19.4033 46.4705 21.3925 48.5615C23.3817 50.6433 26.5075 51.6843 30.77 51.6843C33.9492 51.6843 37.0484 50.5975 40.0676 48.4239C41.373 47.4885 42.5097 46.4017 43.4777 45.1636ZM56.4783 60.75C55.1374 59.2276 54.1695 57.2604 53.5745 54.8483C52.9795 52.4455 52.682 49.2768 52.682 45.3424C52.682 41.408 53.3347 37.6523 54.6401 34.0756C55.9455 30.4896 57.7926 27.4081 60.1814 24.831C65.0655 19.4292 71.5437 16.7283 79.6158 16.7283C82.5196 16.7283 85.0194 17.2281 87.1152 18.2278L101.701 16.7283L95.3871 51.0652C95.2184 51.7714 95.134 52.7711 95.134 54.0642C95.134 55.3482 95.5159 56.4029 96.2796 57.2283C97.0522 58.0537 98.0068 58.5214 99.1435 58.6315C98.5751 60.6308 97.252 62.2174 95.174 63.3913C93.1049 64.5652 90.9026 65.1522 88.5671 65.1522C86.2405 65.1522 84.2957 64.6982 82.7328 63.7903C81.1698 62.8823 80.1619 61.6625 79.709 60.1309C78.7944 61.5983 77.3735 62.8043 75.4465 63.749C73.5106 64.6844 71.2506 65.1522 68.6665 65.1522C66.0823 65.1522 63.7379 64.7991 61.6333 64.0929C59.5287 63.3867 57.8104 62.2724 56.4783 60.75ZM74.4608 25.0099C73.8037 26.0645 73.1909 27.4861 72.6226 29.2745C72.0543 31.0628 71.3039 34.3507 70.3715 39.1381C69.4302 43.9163 68.9595 48.0112 68.9595 51.4229C68.9595 54.8254 69.217 57.0265 69.7321 58.0262C70.2383 59.0166 70.9487 59.5119 71.8634 59.5119C73.6838 59.5119 75.26 58.6177 76.5921 56.8293C77.9241 55.0409 78.8477 52.5601 79.3627 49.3869L83.8783 23.5929C82.6884 22.5382 81.3963 22.0109 80.0021 22.0109C78.6079 22.0109 77.4979 22.2447 76.672 22.7125C75.855 23.1802 75.118 23.946 74.4608 25.0099ZM126.677 58.5489C124.918 62.9511 121.224 65.1522 115.594 65.1522C112.752 65.1522 110.421 64.125 108.601 62.0707C107.127 60.3648 106.39 58.5443 106.39 56.6092C106.39 52.207 107.384 45.1957 109.373 35.5751L115.594 1.76087L132.897 0L124.625 44.5445C123.666 48.8916 123.187 51.8264 123.187 53.3488C123.187 56.6963 124.35 58.4297 126.677 58.5489ZM168.449 48.5065C169.87 49.5061 170.581 51.1065 170.581 53.3076C170.581 55.5087 170.039 57.3154 168.955 58.7278C167.881 60.1309 166.46 61.3049 164.693 62.2495C161.061 64.1846 157.282 65.1522 153.357 65.1522C149.441 65.1522 146.329 64.712 144.02 63.8315C141.72 62.9511 139.802 61.6901 138.265 60.0484C135.255 56.9394 133.75 52.5372 133.75 46.8419C133.75 37.9733 136.081 30.8427 140.743 25.4501C145.743 19.6355 152.589 16.7283 161.283 16.7283C166.682 16.7283 170.718 17.9022 173.391 20.25C175.38 22.0109 176.375 24.3312 176.375 27.2109C176.375 37.5377 167.739 42.7011 150.467 42.7011C150.236 44.2235 150.12 45.6313 150.12 46.9244C150.12 49.6299 150.702 51.4963 151.865 52.5234C153.029 53.5506 154.694 54.0642 156.861 54.0642C159.018 54.0642 161.247 53.5506 163.547 52.5234C165.847 51.4963 167.481 50.1573 168.449 48.5065ZM151.053 38.918C155.093 38.918 158.277 37.6248 160.604 35.0386C162.939 32.5715 164.107 29.3753 164.107 25.4501C164.107 24.0927 163.863 23.0472 163.374 22.3135C162.895 21.5798 162.171 21.213 161.203 21.213C160.235 21.213 159.338 21.4056 158.512 21.7908C157.695 22.176 156.861 23.0105 156.008 24.2945C153.903 27.2293 152.252 32.1038 151.053 38.918ZM215.337 65.1522C208.464 65.1522 205.027 62.3917 205.027 56.8706C205.08 55.3482 205.333 53.2938 205.786 50.7075L207.318 42.6185C208.854 34.9881 209.623 30.32 209.623 28.6141C209.623 25.2116 208.659 23.5104 206.732 23.5104C203.491 23.5104 201.018 27.8804 199.313 36.6206L194.277 63.3913L177.147 65.1522L186.006 18.4066L199.992 16.7283L198.633 25.3538C201.297 19.6034 206.723 16.7283 214.911 16.7283C218.889 16.7283 221.717 17.5949 223.396 19.3283C225.074 21.0617 225.913 23.8635 225.913 27.7337C225.913 31.3747 225.003 37.4506 223.183 45.9615C222.33 49.7767 221.904 52.4042 221.904 53.8441C221.904 55.2748 222.286 56.4029 223.049 57.2283C223.822 58.0537 224.777 58.5214 225.913 58.6315C225.345 60.6308 224.08 62.2174 222.117 63.3913C220.154 64.5652 217.894 65.1522 215.337 65.1522ZM259.587 16.7283C261.63 16.7283 263.446 16.9621 265.035 17.4299C265.097 17.2006 265.182 16.7604 265.288 16.1092L265.715 13.3854C265.945 12.2115 266.23 10.6569 266.567 8.72181L267.939 1.76087L284.896 0L275.438 51.0652C275.385 51.4137 275.359 51.8815 275.359 52.4684V53.8854C275.359 55.1785 275.669 56.3066 276.291 57.2695C276.913 58.2417 277.738 58.7278 278.769 58.7278C277.632 61.4883 275.327 63.4555 271.855 64.6294C270.665 64.9779 269.231 65.1522 267.553 65.1522C265.874 65.1522 264.267 64.6982 262.731 63.7903C261.203 62.8823 260.209 61.6625 259.747 60.1309C258.841 61.6625 257.478 62.8823 255.658 63.7903C253.837 64.6982 251.608 65.1522 248.971 65.1522C246.325 65.1522 243.909 64.7991 241.725 64.0929C239.531 63.3867 237.755 62.2724 236.396 60.75C233.892 57.7602 232.64 52.8582 232.64 46.044C232.64 37.2396 235.14 30.1687 240.139 24.831C245.148 19.4292 251.631 16.7283 259.587 16.7283ZM258.988 22.0109C256.883 22.0109 255.263 23.1848 254.126 25.5326C252.989 27.8804 251.839 31.9616 250.676 37.7762C249.513 43.5815 248.931 49.098 248.931 54.3256C248.931 57.9023 249.952 59.6907 251.995 59.6907C253.815 59.6907 255.365 58.7507 256.643 56.8706C257.922 54.9997 258.815 52.5051 259.321 49.3869L263.93 23.5929C262.74 22.5382 261.092 22.0109 258.988 22.0109ZM289.718 60.75C288.386 59.2276 287.418 57.2604 286.814 54.8483C286.219 52.4455 285.922 49.2768 285.922 45.3424C285.922 41.408 286.574 37.6523 287.88 34.0756C289.194 30.4896 291.041 27.4081 293.421 24.831C298.314 19.4292 304.797 16.7283 312.869 16.7283C315.764 16.7283 318.263 17.2281 320.368 18.2278L334.94 16.7283L328.64 51.0652C328.462 51.7714 328.374 52.7711 328.374 54.0642C328.374 55.3482 328.76 56.4029 329.532 57.2283C330.296 58.0537 331.246 58.5214 332.383 58.6315C331.815 60.6308 330.496 62.2174 328.427 63.3913C326.349 64.5652 324.147 65.1522 321.82 65.1522C319.484 65.1522 317.535 64.6982 315.972 63.7903C314.409 62.8823 313.401 61.6625 312.949 60.1309C312.043 61.5983 310.622 62.8043 308.686 63.749C306.75 64.6844 304.49 65.1522 301.906 65.1522C299.322 65.1522 296.977 64.7991 294.873 64.0929C292.768 63.3867 291.05 62.2724 289.718 60.75ZM307.7 25.0099C307.052 26.0645 306.444 27.4861 305.875 29.2745C305.307 31.0628 304.552 34.3507 303.611 39.1381C302.679 43.9163 302.212 48.0112 302.212 51.4229C302.212 54.8254 302.465 57.0265 302.972 58.0262C303.487 59.0166 304.197 59.5119 305.103 59.5119C306.923 59.5119 308.5 58.6177 309.832 56.8293C311.173 55.0409 312.096 52.5601 312.602 49.3869L317.131 23.5929C315.932 22.5382 314.636 22.0109 313.242 22.0109C311.856 22.0109 310.751 22.2447 309.925 22.7125C309.099 23.1802 308.357 23.946 307.7 25.0099ZM366.23 38.6566C368.272 34.8964 369.294 31.1087 369.294 27.2935C369.294 24.7714 368.415 23.5104 366.656 23.5104C365.289 23.5104 363.895 24.7118 362.474 27.1146C361 29.5267 360.036 32.2872 359.583 35.3962L355.148 63.3913L337.498 65.1522L346.196 18.4891L360.263 16.7283L358.731 25.6152C361.51 19.6906 366.026 16.7283 372.277 16.7283C375.581 16.7283 378.125 17.6087 379.91 19.3696C381.704 21.1304 382.601 23.8176 382.601 27.4311C382.601 31.0353 381.451 33.9839 379.151 36.2767C376.842 38.5603 373.729 39.7021 369.813 39.7021C368.108 39.7021 366.914 39.3536 366.23 38.6566ZM420.111 65.1522C412.838 65.1522 408.86 59.81 408.176 49.1255H393.51C392.373 51.831 391.406 54.3577 390.606 56.7055L388.395 63.3913H376.46L403.314 5.28261H421.643L425.226 48.0662C425.794 54.2293 427.215 58.2233 429.488 60.0484C427.837 63.4509 424.711 65.1522 420.111 65.1522ZM400.836 31.5168L396.148 42.7011H407.923L406.897 20.0712V17.6912L400.836 31.5168ZM474.152 57.3658C471.772 59.8604 468.948 61.7818 465.68 63.1299C462.412 64.4781 459.157 65.1522 455.916 65.1522C452.675 65.1522 450.486 64.8587 449.349 64.2717L446.712 79.2391L429.395 81L441.17 18.4891L455.064 16.9896L453.958 23.0701C456.338 18.8973 460.001 16.8108 464.947 16.8108C470.515 16.8108 474.778 18.6634 477.735 22.3685C480.354 25.7069 481.664 29.9302 481.664 35.0386C481.664 40.1469 481.007 44.5216 479.693 48.1625C478.387 51.8035 476.54 54.8713 474.152 57.3658ZM454.89 32.6586L450.375 58.4664C451.565 59.5211 452.901 60.0484 454.384 60.0484C455.858 60.0484 457.022 59.7549 457.874 59.168C458.727 58.581 459.464 57.7006 460.085 56.5267C461.79 53.3534 463.327 46.9565 464.694 37.3359C465.094 34.5112 465.294 31.7232 465.294 28.9718C465.294 26.2113 464.996 24.3908 464.401 23.5104C463.797 22.6299 462.927 22.1897 461.79 22.1897C458.327 22.1897 456.027 25.6794 454.89 32.6586ZM526.501 57.3658C524.112 59.8604 521.283 61.7818 518.016 63.1299C514.748 64.4781 511.493 65.1522 508.252 65.1522C505.019 65.1522 502.835 64.8587 501.698 64.2717L499.047 79.2391L481.744 81L493.506 18.4891L507.399 16.9896L506.294 23.0701C508.682 18.8973 512.35 16.8108 517.296 16.8108C522.864 16.8108 527.127 18.6634 530.084 22.3685C532.695 25.7069 534 29.9302 534 35.0386C534 40.1469 533.347 44.5216 532.042 48.1625C530.736 51.8035 528.889 54.8713 526.501 57.3658ZM507.239 32.6586L502.71 58.4664C503.909 59.5211 505.246 60.0484 506.72 60.0484C508.203 60.0484 509.371 59.7549 510.223 59.168C511.076 58.581 511.813 57.7006 512.434 56.5267C514.139 53.3534 515.676 46.9565 517.043 37.3359C517.434 34.5112 517.629 31.7232 517.629 28.9718C517.629 26.2113 517.332 24.3908 516.737 23.5104C516.142 22.6299 515.276 22.1897 514.139 22.1897C510.676 22.1897 508.376 25.6794 507.239 32.6586Z" fill="white"/>
</svg>
